<mxfile host="app.diagrams.net" modified="2022-09-17T17:33:02.203Z" agent="5.0 (Windows NT 10.0) AppleWebKit/537.36 (KHTML, like Gecko) Chrome/105.0.0.0 Safari/537.36 Edg/105.0.1343.42" etag="R2jSj0ir0qqD1qeQEyEu" version="20.3.2" type="github" pages="2">
  <diagram id="C5RBs43oDa-KdzZeNtuy" name="Page-1">
    <mxGraphModel dx="1239" dy="697" grid="1" gridSize="10" guides="1" tooltips="1" connect="1" arrows="1" fold="1" page="1" pageScale="1" pageWidth="827" pageHeight="1169" math="0" shadow="0">
      <root>
        <mxCell id="WIyWlLk6GJQsqaUBKTNV-0" />
        <mxCell id="WIyWlLk6GJQsqaUBKTNV-1" parent="WIyWlLk6GJQsqaUBKTNV-0" />
        <mxCell id="zd00T6Fjxn2jINMvccMp-3" value="" style="edgeStyle=orthogonalEdgeStyle;rounded=0;orthogonalLoop=1;jettySize=auto;html=1;" parent="WIyWlLk6GJQsqaUBKTNV-1" source="zd00T6Fjxn2jINMvccMp-1" target="zd00T6Fjxn2jINMvccMp-2" edge="1">
          <mxGeometry relative="1" as="geometry" />
        </mxCell>
        <mxCell id="zd00T6Fjxn2jINMvccMp-1" value="START" style="rounded=1;whiteSpace=wrap;html=1;fillColor=#60a917;fontColor=#ffffff;strokeColor=#2D7600;fontStyle=1;fontSize=21;" parent="WIyWlLk6GJQsqaUBKTNV-1" vertex="1">
          <mxGeometry x="370" y="50" width="120" height="60" as="geometry" />
        </mxCell>
        <mxCell id="zd00T6Fjxn2jINMvccMp-8" value="" style="edgeStyle=orthogonalEdgeStyle;rounded=0;orthogonalLoop=1;jettySize=auto;html=1;fontSize=13;" parent="WIyWlLk6GJQsqaUBKTNV-1" source="zd00T6Fjxn2jINMvccMp-2" target="zd00T6Fjxn2jINMvccMp-7" edge="1">
          <mxGeometry relative="1" as="geometry" />
        </mxCell>
        <mxCell id="zd00T6Fjxn2jINMvccMp-2" value="string[] array1&lt;br style=&quot;font-size: 14px;&quot;&gt;string [] array2&lt;br style=&quot;font-size: 14px;&quot;&gt;int count = 0" style="shape=parallelogram;perimeter=parallelogramPerimeter;whiteSpace=wrap;html=1;fixedSize=1;fontSize=14;fontStyle=1" parent="WIyWlLk6GJQsqaUBKTNV-1" vertex="1">
          <mxGeometry x="360" y="140" width="140" height="60" as="geometry" />
        </mxCell>
        <mxCell id="zd00T6Fjxn2jINMvccMp-14" style="edgeStyle=orthogonalEdgeStyle;rounded=0;orthogonalLoop=1;jettySize=auto;html=1;fontSize=13;" parent="WIyWlLk6GJQsqaUBKTNV-1" source="zd00T6Fjxn2jINMvccMp-4" edge="1">
          <mxGeometry relative="1" as="geometry">
            <mxPoint x="120" y="330" as="targetPoint" />
          </mxGeometry>
        </mxCell>
        <mxCell id="zd00T6Fjxn2jINMvccMp-17" style="edgeStyle=orthogonalEdgeStyle;rounded=0;orthogonalLoop=1;jettySize=auto;html=1;fontSize=13;" parent="WIyWlLk6GJQsqaUBKTNV-1" source="zd00T6Fjxn2jINMvccMp-4" edge="1">
          <mxGeometry relative="1" as="geometry">
            <mxPoint x="310" y="300" as="targetPoint" />
            <Array as="points">
              <mxPoint x="310" y="430" />
              <mxPoint x="310" y="310" />
            </Array>
          </mxGeometry>
        </mxCell>
        <mxCell id="zd00T6Fjxn2jINMvccMp-4" value="if (array1[i] length &amp;lt;=3)" style="rhombus;whiteSpace=wrap;html=1;fontSize=13;fontStyle=1" parent="WIyWlLk6GJQsqaUBKTNV-1" vertex="1">
          <mxGeometry x="336.25" y="375" width="187.5" height="120" as="geometry" />
        </mxCell>
        <mxCell id="zd00T6Fjxn2jINMvccMp-10" value="" style="edgeStyle=orthogonalEdgeStyle;rounded=0;orthogonalLoop=1;jettySize=auto;html=1;fontSize=13;" parent="WIyWlLk6GJQsqaUBKTNV-1" source="zd00T6Fjxn2jINMvccMp-5" target="zd00T6Fjxn2jINMvccMp-7" edge="1">
          <mxGeometry relative="1" as="geometry" />
        </mxCell>
        <mxCell id="zd00T6Fjxn2jINMvccMp-5" value="array2 [count] = array1[i]&lt;br style=&quot;font-size: 13px;&quot;&gt;count++&amp;nbsp;" style="rounded=0;whiteSpace=wrap;html=1;fontStyle=1;fontSize=13;" parent="WIyWlLk6GJQsqaUBKTNV-1" vertex="1">
          <mxGeometry x="40" y="255" width="160" height="70" as="geometry" />
        </mxCell>
        <mxCell id="zd00T6Fjxn2jINMvccMp-6" value="FINISH" style="rounded=1;whiteSpace=wrap;html=1;fillColor=#0050ef;fontColor=#ffffff;strokeColor=#001DBC;" parent="WIyWlLk6GJQsqaUBKTNV-1" vertex="1">
          <mxGeometry x="370" y="660" width="120" height="60" as="geometry" />
        </mxCell>
        <mxCell id="zd00T6Fjxn2jINMvccMp-9" value="" style="edgeStyle=orthogonalEdgeStyle;rounded=0;orthogonalLoop=1;jettySize=auto;html=1;fontSize=13;" parent="WIyWlLk6GJQsqaUBKTNV-1" source="zd00T6Fjxn2jINMvccMp-7" target="zd00T6Fjxn2jINMvccMp-4" edge="1">
          <mxGeometry relative="1" as="geometry" />
        </mxCell>
        <mxCell id="zd00T6Fjxn2jINMvccMp-23" style="edgeStyle=orthogonalEdgeStyle;rounded=0;orthogonalLoop=1;jettySize=auto;html=1;entryX=1;entryY=0.5;entryDx=0;entryDy=0;fontSize=13;" parent="WIyWlLk6GJQsqaUBKTNV-1" source="zd00T6Fjxn2jINMvccMp-7" target="zd00T6Fjxn2jINMvccMp-20" edge="1">
          <mxGeometry relative="1" as="geometry">
            <Array as="points">
              <mxPoint x="660" y="290" />
              <mxPoint x="660" y="585" />
            </Array>
          </mxGeometry>
        </mxCell>
        <mxCell id="zd00T6Fjxn2jINMvccMp-7" value="for(int i = 0, i &amp;lt; array1, length, i++" style="rhombus;whiteSpace=wrap;html=1;fontSize=13;fontStyle=1" parent="WIyWlLk6GJQsqaUBKTNV-1" vertex="1">
          <mxGeometry x="310" y="240" width="240" height="100" as="geometry" />
        </mxCell>
        <mxCell id="zd00T6Fjxn2jINMvccMp-12" value="Yes" style="text;html=1;align=center;verticalAlign=middle;resizable=0;points=[];autosize=1;strokeColor=#006EAF;fillColor=#1ba1e2;fontSize=13;fontStyle=1;fontColor=#ffffff;" parent="WIyWlLk6GJQsqaUBKTNV-1" vertex="1">
          <mxGeometry x="130" y="390" width="50" height="30" as="geometry" />
        </mxCell>
        <mxCell id="zd00T6Fjxn2jINMvccMp-13" value="No" style="text;html=1;align=center;verticalAlign=middle;resizable=0;points=[];autosize=1;strokeColor=#B20000;fillColor=#e51400;fontSize=13;fontStyle=1;fontColor=#ffffff;" parent="WIyWlLk6GJQsqaUBKTNV-1" vertex="1">
          <mxGeometry x="260" y="325" width="40" height="30" as="geometry" />
        </mxCell>
        <mxCell id="zd00T6Fjxn2jINMvccMp-18" value="Yes" style="text;html=1;align=center;verticalAlign=middle;resizable=0;points=[];autosize=1;strokeColor=#006EAF;fillColor=#1ba1e2;fontSize=13;fontColor=#ffffff;" parent="WIyWlLk6GJQsqaUBKTNV-1" vertex="1">
          <mxGeometry x="450" y="345" width="40" height="30" as="geometry" />
        </mxCell>
        <mxCell id="zd00T6Fjxn2jINMvccMp-21" value="" style="edgeStyle=orthogonalEdgeStyle;rounded=0;orthogonalLoop=1;jettySize=auto;html=1;fontSize=13;" parent="WIyWlLk6GJQsqaUBKTNV-1" source="zd00T6Fjxn2jINMvccMp-20" target="zd00T6Fjxn2jINMvccMp-6" edge="1">
          <mxGeometry relative="1" as="geometry" />
        </mxCell>
        <mxCell id="zd00T6Fjxn2jINMvccMp-20" value="array2[count]" style="shape=document;whiteSpace=wrap;html=1;boundedLbl=1;fontSize=13;" parent="WIyWlLk6GJQsqaUBKTNV-1" vertex="1">
          <mxGeometry x="370" y="545" width="120" height="80" as="geometry" />
        </mxCell>
        <mxCell id="zd00T6Fjxn2jINMvccMp-22" value="No" style="text;html=1;align=center;verticalAlign=middle;resizable=0;points=[];autosize=1;strokeColor=#B20000;fillColor=#e51400;fontSize=13;fontColor=#ffffff;" parent="WIyWlLk6GJQsqaUBKTNV-1" vertex="1">
          <mxGeometry x="670" y="295" width="40" height="30" as="geometry" />
        </mxCell>
      </root>
    </mxGraphModel>
  </diagram>
  <diagram id="XEh4R__2tOOa1F70O8Vv" name="Страница 2">
    <mxGraphModel dx="867" dy="488" grid="1" gridSize="10" guides="1" tooltips="1" connect="1" arrows="1" fold="1" page="1" pageScale="1" pageWidth="827" pageHeight="1169" math="0" shadow="0">
      <root>
        <mxCell id="0" />
        <mxCell id="1" parent="0" />
      </root>
    </mxGraphModel>
  </diagram>
</mxfile>
